<?xml version="1.0" encoding="UTF-8"?>
<svg id="Camada_1" data-name="Camada 1" xmlns="http://www.w3.org/2000/svg" viewBox="0 0 783.37 255.48">
  <defs>
    <style>
      .cls-1 {
        fill: #fff;
      }
    </style>
  </defs>
  <g>
    <path class="cls-1" d="M27.86,200.51c-2.87-3.23-5.74-6.89-8.33-10.61C7.05,171.92.3,150.85,0,128.95-.77,69.37,47.06,19.56,106.62,17.91c1.01-.03,2.02-.04,3.02-.04,8.63,0,17.3,1.04,25.77,3.09l6.3,1.46-17.08,19.78-2.35-.37c-4.22-.62-8.47-.93-12.64-.93-47.76,0-86.61,38.85-86.61,86.6,0,13.68,3.32,27.23,9.65,39.49L175.98,6.34c3.59-4.03,8.75-6.34,14.16-6.34,4.66,0,9.14,1.71,12.62,4.81l2.96,2.78L42.49,190.58l-11.36,13.54-3.27-3.61Z"/>
    <path class="cls-1" d="M32.76,255.48c-4.56,0-8.97-1.65-12.42-4.64l-3.14-2.58L175.75,65.37l9.31-10.96,2.85-3.35,3.27,3.26c19.64,21.86,29.56,50.06,27.92,79.42-1.49,26.75-12.85,52.03-31.97,71.17-19.12,19.14-44.38,30.52-71.13,32.05-2.11.12-4.25.18-6.35.18h0c-15.38,0-30.24-3.14-44.21-9.34l-18.33,21.14c-3.6,4.16-8.83,6.54-14.34,6.54ZM81.42,209.35c9.08,3.16,18.55,4.76,28.22,4.76,47.75,0,86.6-38.85,86.6-86.61,0-13.86-3.29-27.43-9.57-39.57l-105.26,121.42Z"/>
  </g>
  <g>
    <path class="cls-1" d="M355.91,134.26c0,29.88-24.14,54.02-54.02,54.02s-54.02-24.14-54.02-54.02,24.29-54.02,54.02-54.02,54.02,24.29,54.02,54.02ZM330.25,134.26c0-15.69-12.67-28.37-28.37-28.37s-28.37,12.68-28.37,28.37,12.83,28.37,28.37,28.37,28.37-12.67,28.37-28.37Z"/>
    <path class="cls-1" d="M454.29,142.26l18.11,44.97h-28.22l-15.69-40.14h-25.8v40.14h-25.65v-105.47h60.21c17.96,0,32.74,14.64,32.74,32.59,0,11.77-6.34,22.18-15.69,27.92ZM444.18,114.35c0-3.77-3.17-6.94-6.94-6.94h-34.55v14.03h34.55c3.77,0,6.94-3.17,6.94-7.09Z"/>
    <path class="cls-1" d="M580.58,133.81c4.53,5.58,7.39,12.67,7.39,20.52,0,17.96-14.79,32.59-32.74,32.59h-60.21v-105.17h59.15c17.96,0,32.74,14.79,32.74,32.74,0,7.24-2.41,13.88-6.34,19.31ZM520.67,121.59h33.5c3.77,0,6.94-3.17,6.94-7.09s-3.17-6.94-6.94-6.94h-33.5v14.03ZM562.17,154.33c0-3.92-3.32-7.09-7.24-7.09h-34.25v14.03h34.55c3.77,0,6.94-3.17,6.94-6.94Z"/>
    <path class="cls-1" d="M615.13,81.75h25.65v105.17h-25.65v-105.17Z"/>
    <path class="cls-1" d="M742.18,134.26l41.19,52.96h-32.44l-25.05-32.14-24.9,32.14h-33.05l41.65-52.96-41.65-52.66,32.59-.6,25.35,32.44,25.35-32.44,32.14.6-41.19,52.66Z"/>
  </g>
</svg>