<?xml version="1.0" encoding="UTF-8"?>
<svg id="Camada_1" data-name="Camada 1" xmlns="http://www.w3.org/2000/svg" viewBox="0 0 761.19 248.24">
  <defs>
    <style>
      .cls-1 {
        fill: #fff;
      }
    </style>
  </defs>
  <g>
    <path class="cls-1" d="M27.07,194.84c-2.79-3.13-5.58-6.7-8.09-10.31C6.85,167.06.29,146.58,0,125.3-.75,67.41,45.72,19.01,103.6,17.4c.98-.03,1.96-.04,2.93-.04,8.38,0,16.81,1.01,25.04,3l6.13,1.42-16.59,19.22-2.29-.36c-4.1-.6-8.23-.91-12.28-.91-46.4,0-84.16,37.75-84.16,84.15,0,13.3,3.23,26.46,9.37,38.38L171,6.16c3.49-3.92,8.51-6.16,13.76-6.16,4.53,0,8.88,1.66,12.26,4.68l2.88,2.71L41.28,185.19l-11.04,13.15-3.18-3.51Z"/>
    <path class="cls-1" d="M31.84,248.24c-4.43,0-8.71-1.6-12.07-4.5l-3.05-2.51L170.77,63.52l9.04-10.65,2.77-3.25,3.18,3.17c19.09,21.24,28.72,48.64,27.13,77.17-1.45,26-12.48,50.55-31.06,69.15-18.58,18.6-43.12,29.65-69.12,31.14-2.05.12-4.13.18-6.17.18h0c-14.94,0-29.38-3.05-42.96-9.07l-17.81,20.54c-3.5,4.04-8.58,6.36-13.93,6.36ZM79.11,203.42c8.82,3.07,18.02,4.62,27.42,4.62,46.4,0,84.15-37.75,84.15-84.15,0-13.47-3.2-26.65-9.3-38.45l-102.28,117.99Z"/>
  </g>
  <g>
    <path class="cls-1" d="M345.83,112c0,29.03-23.46,52.49-52.49,52.49s-52.49-23.46-52.49-52.49,23.61-52.49,52.49-52.49,52.49,23.61,52.49,52.49ZM320.9,112c0-15.25-12.32-27.57-27.57-27.57s-27.57,12.32-27.57,27.57,12.46,27.57,27.57,27.57,27.57-12.32,27.57-27.57Z"/>
    <path class="cls-1" d="M441.42,119.77l17.59,43.69h-27.42l-15.25-39h-25.07v39h-24.93V60.98h58.5c17.45,0,31.82,14.22,31.82,31.67,0,11.44-6.16,21.55-15.25,27.13ZM431.6,92.65c0-3.67-3.08-6.74-6.74-6.74h-33.58v13.63h33.58c3.67,0,6.74-3.08,6.74-6.89Z"/>
    <path class="cls-1" d="M564.14,111.56c4.4,5.42,7.18,12.32,7.18,19.94,0,17.45-14.37,31.67-31.82,31.67h-58.5V60.98h57.48c17.45,0,31.82,14.37,31.82,31.82,0,7.04-2.35,13.49-6.16,18.77ZM505.93,99.68h32.55c3.67,0,6.74-3.08,6.74-6.89s-3.08-6.74-6.74-6.74h-32.55v13.64ZM546.25,131.5c0-3.81-3.23-6.89-7.04-6.89h-33.28v13.64h33.58c3.67,0,6.74-3.08,6.74-6.74Z"/>
    <path class="cls-1" d="M597.71,60.98h24.93v102.2h-24.93V60.98Z"/>
    <path class="cls-1" d="M721.17,112l40.03,51.46h-31.52l-24.34-31.23-24.19,31.23h-32.11l40.47-51.46-40.47-51.17,31.67-.59,24.63,31.52,24.63-31.52,31.23.59-40.03,51.17Z"/>
  </g>
  <g>
    <g>
      <path class="cls-1" d="M247.34,190.33h5.36v32.85h20.31v4.66h-25.67v-37.51Z"/>
      <path class="cls-1" d="M306.39,223.18v4.66h-27.22v-37.51h26.47v4.66h-21.12v11.52h18.81v4.55h-18.81v12.11h21.87Z"/>
      <path class="cls-1" d="M338.98,218.47h-19.94l-4.13,9.38h-5.52l16.99-37.51h5.3l17.04,37.51h-5.63l-4.13-9.38ZM337.1,214.18l-8.09-18.38-8.09,18.38h16.18Z"/>
      <path class="cls-1" d="M379.38,227.84l-8.09-11.52c-1,.07-1.79.11-2.36.11h-9.27v11.41h-5.36v-37.51h14.63c4.86,0,8.68,1.16,11.47,3.48s4.18,5.52,4.18,9.59c0,2.89-.71,5.36-2.14,7.4-1.43,2.04-3.47,3.52-6.11,4.45l8.9,12.59h-5.84ZM376.54,209.68c1.79-1.46,2.68-3.55,2.68-6.27s-.89-4.79-2.68-6.24-4.38-2.17-7.77-2.17h-9.11v16.88h9.11c3.39,0,5.98-.73,7.77-2.2Z"/>
      <path class="cls-1" d="M425.52,190.33v37.51h-4.39l-22.51-27.97v27.97h-5.36v-37.51h4.39l22.51,27.97v-27.97h5.36Z"/>
      <path class="cls-1" d="M436.78,190.33h5.36v37.51h-5.36v-37.51Z"/>
      <path class="cls-1" d="M485.65,190.33v37.51h-4.39l-22.51-27.97v27.97h-5.36v-37.51h4.39l22.51,27.97v-27.97h5.36Z"/>
      <path class="cls-1" d="M522.9,208.87h5.14v14.63c-1.86,1.54-4.02,2.71-6.48,3.54-2.46.82-5.04,1.23-7.72,1.23-3.79,0-7.2-.83-10.24-2.49-3.04-1.66-5.42-3.95-7.15-6.86-1.73-2.91-2.6-6.19-2.6-9.83s.87-6.93,2.6-9.86c1.73-2.93,4.13-5.21,7.18-6.86,3.05-1.64,6.49-2.46,10.32-2.46,3,0,5.73.49,8.17,1.47s4.53,2.42,6.24,4.31l-3.32,3.32c-3-2.89-6.63-4.34-10.88-4.34-2.86,0-5.42.62-7.69,1.85-2.27,1.23-4.05,2.95-5.33,5.14-1.29,2.2-1.93,4.67-1.93,7.42s.64,5.17,1.93,7.37c1.29,2.2,3.06,3.92,5.33,5.17,2.27,1.25,4.81,1.88,7.64,1.88,3.36,0,6.29-.8,8.79-2.41v-12.22Z"/>
    </g>
    <g>
      <path class="cls-1" d="M574.51,187.9h-5.92v-2.14h14.27v2.14h-5.91v15.11h-2.44v-15.11Z"/>
      <path class="cls-1" d="M598.07,200.86v2.14h-12.52v-17.25h12.17v2.14h-9.71v5.3h8.65v2.09h-8.65v5.57h10.06Z"/>
      <path class="cls-1" d="M605.03,202.06c-1.39-.76-2.48-1.81-3.27-3.15-.79-1.34-1.18-2.85-1.18-4.52s.39-3.18,1.18-4.52c.79-1.34,1.88-2.39,3.28-3.15s2.96-1.15,4.68-1.15c1.35,0,2.58.23,3.7.68,1.12.45,2.07,1.12,2.86,2.01l-1.6,1.55c-1.3-1.36-2.92-2.04-4.85-2.04-1.28,0-2.44.29-3.48.86-1.04.57-1.84,1.37-2.43,2.38-.58,1.01-.88,2.14-.88,3.39s.29,2.38.88,3.39c.58,1.01,1.39,1.8,2.43,2.38,1.04.58,2.19.86,3.48.86,1.92,0,3.54-.69,4.85-2.07l1.6,1.55c-.79.89-1.75,1.56-2.87,2.02-1.13.46-2.36.69-3.71.69-1.73,0-3.28-.38-4.67-1.15Z"/>
      <path class="cls-1" d="M634.64,185.75v17.25h-2.02l-10.35-12.87v12.87h-2.46v-17.25h2.02l10.35,12.87v-12.87h2.46Z"/>
      <path class="cls-1" d="M642.9,202.06c-1.4-.76-2.49-1.82-3.29-3.17-.8-1.35-1.2-2.85-1.2-4.51s.4-3.16,1.2-4.51c.8-1.35,1.89-2.4,3.29-3.17s2.96-1.15,4.71-1.15,3.29.38,4.68,1.15c1.4.76,2.49,1.81,3.28,3.15.79,1.34,1.18,2.85,1.18,4.52s-.39,3.18-1.18,4.52c-.79,1.34-1.88,2.39-3.28,3.15-1.4.76-2.96,1.15-4.68,1.15s-3.31-.38-4.71-1.15ZM651.02,200.15c1.01-.57,1.81-1.37,2.39-2.38.58-1.01.88-2.14.88-3.39s-.29-2.38-.88-3.39c-.58-1.01-1.38-1.8-2.39-2.38-1.01-.58-2.15-.86-3.41-.86s-2.41.29-3.44.86c-1.03.57-1.83,1.37-2.42,2.38-.58,1.01-.88,2.14-.88,3.39s.29,2.38.88,3.39c.58,1.01,1.39,1.8,2.42,2.38,1.03.58,2.17.86,3.44.86s2.4-.29,3.41-.86Z"/>
      <path class="cls-1" d="M660.52,185.75h2.46v15.11h9.34v2.14h-11.8v-17.25Z"/>
      <path class="cls-1" d="M677.92,202.06c-1.4-.76-2.49-1.82-3.29-3.17-.8-1.35-1.2-2.85-1.2-4.51s.4-3.16,1.2-4.51c.8-1.35,1.89-2.4,3.29-3.17,1.4-.76,2.97-1.15,4.71-1.15s3.29.38,4.68,1.15,2.49,1.81,3.28,3.15,1.18,2.85,1.18,4.52-.39,3.18-1.18,4.52-1.88,2.39-3.28,3.15-2.96,1.15-4.68,1.15-3.31-.38-4.71-1.15ZM686.04,200.15c1.01-.57,1.81-1.37,2.39-2.38.58-1.01.88-2.14.88-3.39s-.29-2.38-.88-3.39c-.58-1.01-1.38-1.8-2.39-2.38-1.01-.58-2.15-.86-3.41-.86s-2.41.29-3.44.86c-1.03.57-1.83,1.37-2.41,2.38-.58,1.01-.88,2.14-.88,3.39s.29,2.38.88,3.39c.58,1.01,1.39,1.8,2.41,2.38,1.03.58,2.17.86,3.44.86s2.4-.29,3.41-.86Z"/>
      <path class="cls-1" d="M707.49,194.28h2.37v6.73c-.85.71-1.85,1.25-2.98,1.62-1.13.38-2.32.57-3.55.57-1.74,0-3.31-.38-4.71-1.15-1.4-.76-2.49-1.81-3.29-3.15s-1.2-2.85-1.2-4.52.4-3.19,1.2-4.53,1.9-2.4,3.3-3.15c1.4-.76,2.99-1.13,4.74-1.13,1.38,0,2.63.23,3.76.68,1.12.45,2.08,1.11,2.87,1.98l-1.53,1.53c-1.38-1.33-3.05-2-5-2-1.31,0-2.49.28-3.54.85-1.04.57-1.86,1.36-2.45,2.37-.59,1.01-.89,2.15-.89,3.41s.29,2.38.89,3.39c.59,1.01,1.41,1.8,2.45,2.38,1.04.58,2.21.86,3.51.86,1.54,0,2.89-.37,4.04-1.11v-5.62Z"/>
      <path class="cls-1" d="M714.57,185.75h2.46v17.25h-2.46v-17.25Z"/>
      <path class="cls-1" d="M733.2,198.69h-9.17l-1.9,4.31h-2.54l7.81-17.25h2.44l7.84,17.25h-2.59l-1.9-4.31ZM732.33,196.72l-3.72-8.45-3.72,8.45h7.44Z"/>
      <path class="cls-1" d="M759.49,203.28l-2.29-2.29c-1.53,1.48-3.45,2.22-5.77,2.22-1.15,0-2.19-.19-3.11-.57-.92-.38-1.64-.91-2.16-1.59s-.78-1.46-.78-2.33c0-1.05.32-1.98.97-2.8.65-.81,1.72-1.65,3.22-2.5-.76-.76-1.29-1.44-1.6-2.04s-.47-1.24-.47-1.9c0-1.17.42-2.1,1.27-2.81.85-.71,1.98-1.06,3.39-1.06,1.31,0,2.36.32,3.13.96.77.64,1.16,1.52,1.16,2.64,0,.87-.28,1.65-.85,2.34-.57.69-1.51,1.41-2.82,2.17l4.26,4.24c.49-.94.85-1.98,1.06-3.13l1.9.62c-.3,1.51-.8,2.83-1.5,3.94l2.32,2.32-1.33,1.58ZM755.8,199.6l-4.9-4.88c-1.18.66-2.01,1.27-2.48,1.84s-.7,1.2-.7,1.91c0,.82.36,1.49,1.07,2,.71.51,1.65.76,2.8.76,1.71,0,3.11-.54,4.21-1.63ZM750.36,187.91c-.44.39-.65.89-.65,1.52,0,.44.12.87.36,1.28.24.41.7.97,1.39,1.68,1.13-.64,1.92-1.19,2.35-1.65.43-.46.65-.96.65-1.5,0-.57-.2-1.04-.6-1.38-.4-.35-.97-.52-1.69-.52-.77,0-1.38.19-1.81.58Z"/>
      <path class="cls-1" d="M583.6,230.44v2.14h-12.52v-17.25h12.17v2.14h-9.71v5.3h8.65v2.09h-8.65v5.57h10.05Z"/>
      <path class="cls-1" d="M587.6,215.33h7.27c1.82,0,3.44.36,4.86,1.08,1.41.72,2.51,1.74,3.29,3.04.78,1.3,1.17,2.8,1.17,4.5s-.39,3.19-1.17,4.5-1.88,2.32-3.29,3.04c-1.41.72-3.03,1.08-4.86,1.08h-7.27v-17.25ZM594.72,230.44c1.4,0,2.62-.27,3.68-.81,1.06-.54,1.88-1.3,2.45-2.28.58-.98.86-2.11.86-3.39s-.29-2.41-.86-3.39c-.58-.98-1.39-1.74-2.45-2.28-1.06-.54-2.29-.81-3.68-.81h-4.66v12.96h4.66Z"/>
      <path class="cls-1" d="M609.73,230.8c-1.28-1.31-1.92-3.2-1.92-5.67v-9.81h2.46v9.71c0,3.7,1.62,5.54,4.85,5.54,1.58,0,2.79-.46,3.62-1.37.84-.91,1.26-2.3,1.26-4.18v-9.71h2.39v9.81c0,2.48-.64,4.38-1.92,5.68-1.28,1.3-3.07,1.96-5.37,1.96s-4.09-.66-5.37-1.97Z"/>
      <path class="cls-1" d="M630.49,231.63c-1.39-.76-2.48-1.81-3.27-3.15s-1.18-2.85-1.18-4.52.39-3.18,1.18-4.52,1.88-2.39,3.28-3.15,2.96-1.15,4.68-1.15c1.35,0,2.58.23,3.7.68,1.12.45,2.07,1.12,2.86,2.01l-1.6,1.55c-1.3-1.36-2.92-2.04-4.85-2.04-1.28,0-2.44.29-3.48.86-1.04.57-1.84,1.37-2.43,2.38-.58,1.01-.88,2.14-.88,3.39s.29,2.38.88,3.39c.58,1.01,1.39,1.8,2.43,2.38,1.04.58,2.19.86,3.48.86,1.92,0,3.54-.69,4.85-2.07l1.6,1.55c-.79.89-1.75,1.56-2.87,2.02-1.13.46-2.36.69-3.71.69-1.73,0-3.28-.38-4.67-1.15Z"/>
      <path class="cls-1" d="M655.84,228.27h-9.17l-1.9,4.31h-2.54l7.81-17.25h2.44l7.84,17.25h-2.59l-1.9-4.31ZM654.97,226.3l-3.72-8.45-3.72,8.45h7.44Z"/>
      <path class="cls-1" d="M665.68,231.63c-1.39-.76-2.48-1.81-3.27-3.15-.79-1.34-1.18-2.85-1.18-4.52s.39-3.18,1.18-4.52c.79-1.34,1.88-2.39,3.28-3.15s2.96-1.15,4.68-1.15c1.35,0,2.58.23,3.7.68,1.12.45,2.07,1.12,2.86,2.01l-1.6,1.55c-1.3-1.36-2.92-2.04-4.85-2.04-1.28,0-2.44.29-3.48.86-1.04.57-1.84,1.37-2.43,2.38-.58,1.01-.88,2.14-.88,3.39s.29,2.38.88,3.39c.58,1.01,1.39,1.8,2.43,2.38,1.04.58,2.19.86,3.48.86,1.92,0,3.54-.69,4.85-2.07l1.6,1.55c-.79.89-1.75,1.56-2.87,2.02-1.13.46-2.36.69-3.71.69-1.73,0-3.28-.38-4.67-1.15ZM667.15,237.56l.52-1.21c.49.28,1.05.42,1.68.42.92,0,1.38-.33,1.38-.99,0-.29-.12-.53-.35-.7-.23-.17-.58-.26-1.06-.26h-.67l.62-2.42h1.36l-.37,1.41c.69.06,1.22.28,1.59.65.37.37.55.83.55,1.39,0,.69-.28,1.24-.84,1.64-.56.4-1.3.6-2.22.6-.85,0-1.59-.18-2.19-.54Z"/>
      <path class="cls-1" d="M691.03,228.27h-9.17l-1.9,4.31h-2.54l7.81-17.25h2.44l7.84,17.25h-2.59l-1.9-4.31ZM687.17,213.6c-.29-.16-.64-.41-1.07-.74-.25-.23-.46-.4-.64-.5-.18-.11-.36-.16-.54-.16-.36,0-.66.13-.89.41-.23.27-.35.64-.37,1.12h-1.33c.03-.92.27-1.65.7-2.19.44-.54,1.01-.81,1.71-.81.39,0,.74.09,1.05.26s.65.42,1.05.75c.28.23.5.4.67.5.16.11.34.16.52.16.36,0,.66-.13.89-.39.23-.26.35-.62.37-1.09h1.33c-.03.89-.27,1.6-.7,2.13-.44.53-1.01.8-1.71.8-.39,0-.74-.08-1.02-.25ZM690.17,226.3l-3.72-8.45-3.72,8.45h7.44Z"/>
      <path class="cls-1" d="M700.91,231.63c-1.4-.76-2.49-1.82-3.29-3.17-.8-1.35-1.2-2.85-1.2-4.51s.4-3.16,1.2-4.51c.8-1.35,1.89-2.4,3.29-3.17,1.4-.76,2.96-1.15,4.71-1.15s3.29.38,4.68,1.15,2.49,1.81,3.28,3.15c.79,1.34,1.18,2.85,1.18,4.52s-.39,3.18-1.18,4.52c-.79,1.34-1.88,2.39-3.28,3.15s-2.96,1.15-4.68,1.15-3.31-.38-4.71-1.15ZM709.03,229.72c1.01-.57,1.81-1.37,2.39-2.38.58-1.01.88-2.14.88-3.39s-.29-2.38-.88-3.39c-.58-1.01-1.38-1.8-2.39-2.38-1.01-.58-2.15-.86-3.41-.86s-2.41.29-3.44.86c-1.03.57-1.83,1.37-2.42,2.38-.58,1.01-.88,2.14-.88,3.39s.29,2.38.88,3.39c.58,1.01,1.39,1.8,2.42,2.38,1.03.58,2.17.86,3.44.86s2.4-.29,3.41-.86Z"/>
    </g>
    <rect class="cls-1" x="549.67" y="185.56" width="3.03" height="45.64"/>
  </g>
</svg>